<!-- Created with Inkscape (http://www.inkscape.org/) -->
<svg width="264.66" height="150" version="1.1" viewBox="0 0 264.66 150" xmlns="http://www.w3.org/2000/svg" xmlns:xlink="http://www.w3.org/1999/xlink">
 <g transform="matrix(4.7368 0 0 4.7368 380.92 -2368.2)">
  <path d="m-50.354 500.22c-1.2-0.0933-2.4-0.21467-3.6013-0.256-2.1067-0.072-4.2067 0.0387-6.2933 0.352-1.7773 0.26533-3.5213 0.664-5.2107 1.284-1.6347 0.6-3.1773 1.372-4.508 2.5173-0.98267 0.84667-1.7613 1.844-2.2053 3.0773-0.29733 0.824-0.444 1.6667-0.284 2.54 0.18667 1.0213 0.75067 1.8107 1.5467 2.4467 0.94533 0.756 2.0413 1.2053 3.1893 1.5413 1.3893 0.40534 2.8133 0.612 4.2547 0.72134 1.4867 0.112 2.9747 0.12 4.4627 0.036 1.6013-0.0907 3.192-0.26667 4.7773-0.50667 0.12267-0.0173 0.18267-0.064 0.228-0.18267 0.424-1.1373 0.856-2.2707 1.2853-3.4053 0.01867-0.0493 0.03333-0.10133 0.056-0.172-0.07067 0.0107-0.116 0.0147-0.16 0.024-1.3933 0.26267-2.7933 0.45867-4.212 0.516-1.124 0.0453-2.2427 0.0133-3.3467-0.224-0.64533-0.13867-1.2667-0.34533-1.8093-0.73733-0.64667-0.468-0.97067-1.0947-0.87067-1.8987 0.10267-0.844 0.51067-1.5387 1.1173-2.124 0.63867-0.61733 1.4013-1.036 2.2227-1.352 1.5733-0.60533 3.2173-0.81867 4.892-0.84 1.444-0.016 2.864 0.19867 4.2747 0.48133 0.11067 0.0227 0.16133 9e-3 0.20533-0.10533 0.428-1.1467 0.86267-2.2893 1.2947-3.4347 0.01733-0.0453 0.032-0.0933 0.052-0.156-0.46533-0.0493-0.91067-0.108-1.3573-0.14266m9.3467 6.6667h0.19467c0.68267-4e-3 1.3667 0.012 2.048-0.016 0.716-0.0307 1.4333-0.0827 2.1467-0.16533 0.54933-0.0627 1.0813-0.22533 1.5747-0.48933 0.53467-0.28534 0.94267-0.684 1.128-1.2773 0.14533-0.468 0.01467-0.82533-0.40133-1.0733-0.11467-0.0693-0.24-0.124-0.36533-0.168-0.62267-0.22-1.2733-0.27467-1.924-0.288-0.992-0.02-1.9853-9e-3 -2.9787-0.016-0.09467-1e-3 -0.12133 0.0467-0.14933 0.12-0.17867 0.47733-0.36133 0.956-0.54267 1.4333-0.24 0.63734-0.48 1.2733-0.73067 1.94m-11.635 7.3693c0.16267-0.43467 0.32-0.85467 0.47867-1.2733 1.5987-4.2253 3.1987-8.4493 4.792-12.676 0.04267-0.112 0.092-0.14666 0.208-0.14666 0.704-1e-3 1.4067-0.016 2.1093-0.0173 1.7747-7e-3 3.5493-7e-3 5.324-0.012 2.5133-8e-3 5.0267-0.0133 7.54-0.0333 1.0253-9e-3 2.048 0.0133 3.0627 0.16267 1.1213 0.164 2.2147 0.42 3.192 1.0253 0.64533 0.39867 1.1387 0.928 1.32 1.6893 0.15867 0.66267 0.03867 1.304-0.19867 1.928-0.52667 1.392-1.468 2.44-2.7 3.2453-1.2107 0.78933-2.5493 1.2627-3.952 1.5693-1.2267 0.268-2.468 0.404-3.7227 0.41067-2.204 0.0133-4.4067 0.024-6.6107 0.028-0.15867 0-0.232 0.044-0.288 0.19466-0.464 1.248-0.94 2.4933-1.4067 3.74-0.04 0.10534-0.09067 0.13734-0.2 0.13734-0.94133-1e-3 -1.8827 3e-3 -2.824 7e-3 -1.8773 7e-3 -3.756 0.0147-5.6333 0.0213-0.15733 1e-3 -0.316 0-0.49067 0m1.264 10.24 0.01067 0.0307h0.41733c2.1147 0 4.2293-1e-3 6.3427 1e-3 0.108 1e-3 0.16-0.028 0.2-0.13466 0.572-1.52 1.1507-3.0387 1.7267-4.5587 0.01333-0.036 0.02-0.0733 0.03467-0.13333-2.9253 1.6067-5.8293 3.2-8.732 4.7947m-17.165 3.1813h0.164c3.616 0 7.232 0 10.848 4e-3 0.13867 0 0.19467-0.0467 0.24133-0.172 0.58267-1.5507 1.1707-3.1 1.7627-4.648 0.02667-0.0693 0.084-0.14534 0.148-0.18 4.6987-2.5507 9.4-5.096 14.103-7.6413 0.07333-0.0387 0.164-0.0627 0.248-0.0627 3.2333-4e-3 6.4653-3e-3 9.6987-3e-3 0.04533 0 0.09067 4e-3 0.16133 7e-3 -1.1747 3.1027-2.344 6.188-3.5227 9.3013h4.9107c-0.092 0.24533-0.17467 0.46533-0.25867 0.68667-0.412 1.0907-0.828 2.1813-1.236 3.2747-0.04 0.108-0.092 0.13334-0.2 0.13334-1.5267-3e-3 -3.052 1e-3 -4.5787-5e-3 -0.152-1e-3 -0.21067 0.0507-0.26 0.18667-0.35333 0.97067-0.71467 1.9373-1.0733 2.9053-0.016 0.044-0.03467 0.0853-0.05867 0.14534h-9.772c0.428-1.0667 0.85867-2.1373 1.2947-3.224-0.06267-4e-3 -0.10667-9e-3 -0.15067-9e-3 -0.97733-4e-3 -1.956-5e-3 -2.9333-0.0107-1.4787-9e-3 -2.9573-0.02-4.4373-0.032-1.3027-9e-3 -2.6053-0.016-3.9093-0.0347-0.148-1e-3 -0.20267 0.052-0.25067 0.17867-0.368 0.98666-0.74533 1.9693-1.1133 2.956-0.04 0.10666-0.092 0.136-0.2 0.136-7.1133-1e-3 -14.225 1e-3 -21.339 3e-3h-0.16c0.048-0.13333 0.08933-0.252 0.13467-0.36933 0.50133-1.3227 1.0053-2.644 1.5013-3.9693 0.05467-0.14534 0.128-0.21867 0.28133-0.25867 2.8907-0.78 5.7733-1.596 8.6147-2.5453 1.1707-0.39067 2.328-0.824 3.4013-1.4453 0.44533-0.25866 0.86133-0.55466 1.2027-0.944 0.20667-0.236 0.364-0.5 0.44933-0.80533 0.14-0.50533-0.0053-0.91733-0.40667-1.2413-0.44-0.35334-0.96667-0.50667-1.5053-0.62-0.96667-0.20267-1.948-0.24267-2.932-0.20267-0.784 0.0307-1.5693 0.0747-2.352 0.13867-1.0973 0.0893-2.1827 0.27333-3.2587 0.51333-0.03867 8e-3 -0.07867 0.012-0.14 0.0213 0.028-0.0827 0.048-0.14933 0.07333-0.21333 0.484-1.28 0.97067-2.5587 1.452-3.8387 0.04533-0.12 0.10533-0.164 0.232-0.17467 1.1533-0.096 2.3053-0.21067 3.46-0.29467 0.93333-0.068 1.868-0.11733 2.8027-0.14666 1.0333-0.032 2.068-0.056 3.1013-0.0413 1.9253 0.0293 3.8427 0.16267 5.724 0.61067 0.94267 0.224 1.86 0.52267 2.6853 1.0507 0.54933 0.352 1.0093 0.78933 1.2667 1.4053 0.27467 0.66 0.22267 1.324 0.01467 1.988-0.292 0.92666-0.868 1.6587-1.5773 2.2973-0.95467 0.85867-2.056 1.4907-3.2053 2.044-2.068 0.99467-4.244 1.7-6.4413 2.344-0.852 0.24933-1.7093 0.48-2.5653 0.71867-0.04933 0.0133-0.09733 0.0293-0.14667 0.044 0.0027 0.0133 0.0053 0.0267 0.0067 0.04" fill="#1c1b1a"/>
 </g>
</svg>
