<?xml version="1.0" encoding="UTF-8"?>
<!DOCTYPE svg PUBLIC "-//W3C//DTD SVG 1.1//EN" "http://www.w3.org/Graphics/SVG/1.1/DTD/svg11.dtd">
<!-- Creator: CorelDRAW -->
<svg xmlns="http://www.w3.org/2000/svg" xml:space="preserve" width="1.70666in" height="1.70666in" version="1.1" style="shape-rendering:geometricPrecision; text-rendering:geometricPrecision; image-rendering:optimizeQuality; fill-rule:evenodd; clip-rule:evenodd"
viewBox="0 0 1707 1707"
 xmlns:xlink="http://www.w3.org/1999/xlink">
 <defs>
  <style type="text/css">
   <![CDATA[
    .fil0 {fill:black}
   ]]>
  </style>
 </defs>
 <g id="Layer_x0020_1">
  <metadata id="CorelCorpID_0Corel-Layer"/>
  <path class="fil0" d="M1485 969c-21,0 -41,-8 -55,-23l-440 -440c-15,-15 -24,-35 -24,-56 0,-21 9,-41 24,-56l141 -141c31,-31 81,-31 112,0l0 0 0 0 0 0 440 440c15,14 23,34 23,55 0,21 -8,41 -23,56l-142 142c-15,15 -35,23 -56,23z"/>
  <path class="fil0" d="M221 997c-21,0 -41,-9 -56,-24l-141 -141c-15,-15 -23,-35 -23,-56 0,-21 8,-41 23,-56l440 -439c0,0 0,0 0,0 31,-31 81,-31 111,0l142 141c15,15 23,35 23,56 0,21 -8,41 -23,56l-440 440c-15,14 -35,23 -56,23z"/>
  <path class="fil0" d="M685 757l114 -114 -11 -7c-31,-18 -65,-30 -100,-36l-333 334c6,39 21,77 43,111l7 10 102 -102c15,-15 39,-15 55,0l44 44c5,6 9,12 10,19l2 6 6 2c7,1 13,4 18,9l45 45c5,5 8,11 10,18l1 6 6 2c7,1 14,5 19,10l44 45c7,7 11,16 12,26l0 6 5 3c6,3 19,17 24,22 8,8 16,16 24,25 8,8 11,21 7,32l-2 6 118 117c24,24 64,24 88,0 25,-24 25,-64 0,-89l-241 -241c-13,-13 6,-31 18,-19l201 201c26,26 76,24 95,-7 8,-13 12,-22 12,-37 0,-17 -6,-33 -18,-45l-221 -221c-13,-12 6,-31 19,-19l140 140c38,38 106,12 106,-44 0,-17 -6,-33 -18,-44l-145 -145 -5 2c-39,12 -82,14 -121,4l-5 -1 -51 50c-34,34 -90,34 -124,0 -34,-34 -34,-90 0,-124z"/>
  <path class="fil0" d="M856 624l-152 152c-24,24 -23,62 0,86 24,24 63,24 86,0l58 -57c3,-4 9,-3 13,-2 39,15 90,12 128,-4 44,-18 74,-43 103,-81 4,-6 12,-7 18,-3 6,4 7,13 3,19 -23,30 -50,56 -83,75l-12 7 137 136c49,49 25,135 -43,150l-18 4 13 13c20,20 38,34 45,62l5 18 136 -137c38,-38 65,-85 79,-136l-381 -381c-51,14 -98,41 -135,79z"/>
  <path class="fil0" d="M819 1298l-89 89 36 35c24,25 64,25 88,0 25,-24 25,-64 0,-88l-35 -36z"/>
  <polygon class="fil0" points="682,1397 816,1263 767,1214 633,1348 "/>
  <path class="fil0" d="M618 1326l130 -131c5,-5 5,-13 0,-18l-53 -52 -157 156 0 12 48 47c11,11 24,-7 32,-14z"/>
  <path class="fil0" d="M523 1259l148 -148 0 -11 -54 -53 -9 4 -150 150 0 11 47 47c5,5 13,5 18,0z"/>
  <path class="fil0" d="M441 1180l148 -148 0 -1c3,-5 2,-11 -2,-15l-44 -44c-5,-5 -13,-5 -18,0l-145 145c-5,5 -5,13 0,17l45 45c4,4 10,4 14,2l2 -1z"/>
 </g>
</svg>
